<svg width="26" height="26" viewBox="0 0 26 26" fill="none" xmlns="http://www.w3.org/2000/svg">
<path d="M4.26021 19.0454H21.7435C22.2293 19.0454 22.5047 18.2942 22.2187 17.8638C21.5564 16.8672 20.913 15.3981 20.913 13.6265L20.9414 11.2033C20.9414 6.39659 17.3865 2.5 13.0013 2.5C8.67974 2.5 5.17642 6.34003 5.17642 11.0769L5.14795 13.6265C5.14795 15.386 4.48156 16.8471 3.79114 17.8434C3.4936 18.2727 3.76833 19.0454 4.26021 19.0454Z" fill="#1D2229"/>
<path d="M9.89019 22.4394C10.7158 23.0989 11.8061 23.5 13.0013 23.5C14.1965 23.5 15.2868 23.0989 16.1124 22.4394M4.26021 19.0454C3.76833 19.0454 3.4936 18.2727 3.79114 17.8434C4.48156 16.8471 5.14795 15.386 5.14795 13.6265L5.17642 11.0769C5.17642 6.34003 8.67974 2.5 13.0013 2.5C17.3865 2.5 20.9414 6.39659 20.9414 11.2033L20.913 13.6265C20.913 15.3981 21.5564 16.8672 22.2187 17.8638C22.5047 18.2942 22.2293 19.0454 21.7435 19.0454H4.26021Z" stroke="#1D2229" stroke-width="2" stroke-linecap="round" stroke-linejoin="round"/>
</svg>
