<svg width="18" height="18" viewBox="0 0 18 18" fill="none" xmlns="http://www.w3.org/2000/svg">
<path d="M4.28916 7.03059L2.0557 9.26404C1.22157 10.0982 0.741886 11.2331 0.750651 12.426C0.759417 13.6188 1.2286 14.7607 2.10232 15.6074C2.949 16.4811 4.09113 16.9503 5.28375 16.9591C6.50357 16.968 7.61168 16.5154 8.44586 15.6812L10.6793 13.4478M13.5321 10.6495L15.7656 8.41606C16.5997 7.58192 17.0794 6.44696 17.0706 5.25414C17.0619 4.06133 16.5927 2.91944 15.719 2.07271C14.8725 1.22623 13.7305 0.757016 12.5377 0.74825C11.3449 0.739484 10.2098 1.19194 9.37563 2.02609L7.14217 4.25955M5.52375 12.1672L12.2241 5.46685" stroke="#121212" stroke-width="1.5" stroke-linecap="round" stroke-linejoin="round"/>
</svg>
