<svg width="22" height="22" viewBox="0 0 22 22" fill="none" xmlns="http://www.w3.org/2000/svg">
<path d="M13.5398 2.875V5.92201C13.5398 6.48295 13.9945 6.93769 14.5555 6.93769H17.6025M7.9536 6.93769H9.98495M7.9536 9.9847H14.0476M7.9536 13.0317H14.0476M16.079 4.39851C15.6269 3.99405 15.1579 3.51435 14.8617 3.20279C14.6647 2.99547 14.3924 2.875 14.1064 2.875H6.42986C5.30798 2.875 4.39852 3.78446 4.39852 4.90633L4.39844 17.0943C4.39843 18.2162 5.30789 19.1257 6.42977 19.1257L15.5709 19.1257C16.6927 19.1257 17.6022 18.2163 17.6022 17.0944L17.6025 6.32645C17.6025 6.06674 17.5034 5.81709 17.3232 5.63012C16.9898 5.28438 16.4333 4.7155 16.079 4.39851Z" stroke="currentColor" stroke-width="1.5" stroke-linecap="round" stroke-linejoin="round"/>
</svg>
