<svg width="26" height="26" viewBox="0 0 26 26" fill="none" xmlns="http://www.w3.org/2000/svg">
<path d="M15.4883 21.6582C15.9198 21.3137 16.5489 21.384 16.8935 21.8154C17.238 22.2468 17.1675 22.876 16.7363 23.2207C15.7311 24.0236 14.4196 24.4999 13.001 24.5C11.5823 24.4999 10.2708 24.0236 9.26561 23.2207C8.83432 22.8759 8.76471 22.2468 9.10936 21.8154C9.45412 21.3842 10.0832 21.3136 10.5146 21.6582C11.1605 22.1739 12.0298 22.4999 13.001 22.5C13.9723 22.4999 14.8424 22.1741 15.4883 21.6582ZM20.998 6.87402C21.6012 8.18496 21.9414 9.65734 21.9414 11.2031V11.2148L21.9131 13.6387C21.916 15.161 22.4707 16.4362 23.0517 17.3105C23.4185 17.8628 23.3824 18.5166 23.2031 18.9785C23.0295 19.4254 22.5617 20.0457 21.7431 20.0459H4.25975C3.42801 20.0457 2.96298 19.4066 2.79393 18.958C2.61866 18.4927 2.58456 17.8278 2.96873 17.2734L3.19432 16.9268C3.71056 16.0766 4.14734 14.943 4.14744 13.627V13.6152H4.14842L4.17674 11.0654C4.18244 5.86975 8.04654 1.50019 13.001 1.5C14.0975 1.50005 15.1415 1.71137 16.1035 2.09668C16.0364 2.38706 16 2.68925 16 3C16 5.20914 17.7908 7 20 7C20.3446 6.99998 20.679 6.956 20.998 6.87402Z" fill="#1D2229"/>
<circle cx="20" cy="3" r="3" fill="#E22B2B"/>
</svg>
