<svg width="18" height="18" viewBox="0 0 18 18" fill="none" xmlns="http://www.w3.org/2000/svg">
<path d="M8.17698 2.06103C8.51986 1.38916 9.47987 1.38916 9.82275 2.06103L11.5557 5.45666C11.6899 5.71969 11.9418 5.90271 12.2334 5.94909L15.9984 6.54787C16.7433 6.66635 17.04 7.57938 16.5069 8.11309L13.813 10.8105C13.6043 11.0194 13.5081 11.3156 13.5541 11.6073L14.1481 15.373C14.2656 16.118 13.4889 16.6823 12.8166 16.3403L9.41876 14.6118C9.15555 14.4779 8.84419 14.4779 8.58098 14.6118L5.18313 16.3403C4.51082 16.6823 3.73415 16.118 3.85168 15.373L4.44563 11.6073C4.49164 11.3156 4.39542 11.0194 4.18674 10.8105L1.4928 8.11309C0.959774 7.57938 1.25643 6.66635 2.00137 6.54787L5.7663 5.94909C6.05795 5.90271 6.30984 5.71969 6.44408 5.45666L8.17698 2.06103Z" fill="#FFDB38"/>
</svg>
