<svg width="22" height="22" viewBox="0 0 22 22" fill="none" xmlns="http://www.w3.org/2000/svg">
<path d="M6.37705 9.19075L4.14359 11.4242C3.30946 12.2583 2.82978 13.3933 2.83854 14.5861C2.84731 15.7789 3.31649 16.9208 4.19021 17.7675C5.03689 18.6413 6.17902 19.1104 7.37164 19.1192C8.59146 19.1282 9.69957 18.6755 10.5337 17.8414L12.7672 15.6079M15.62 12.8097L17.8535 10.5762C18.6876 9.74208 19.1673 8.60711 19.1585 7.4143C19.1498 6.22149 18.6806 5.0796 17.8069 4.23287C16.9604 3.38638 15.8184 2.91717 14.6256 2.90841C13.4328 2.89964 12.2977 3.35209 11.4635 4.18625L9.23006 6.4197M7.61164 14.3274L14.312 7.62701" stroke="#A3B1C2" stroke-width="1.5" stroke-linecap="round" stroke-linejoin="round"/>
</svg>
