<svg width="36" height="36" viewBox="0 0 36 36" fill="none" xmlns="http://www.w3.org/2000/svg">
<path d="M27.9768 9.84216C27.9768 10.8619 27.161 11.6777 26.1412 11.6777C25.1215 11.6777 24.3057 10.8619 24.3057 9.84216C24.3057 8.82242 25.1215 8.00662 26.1412 8.00662C27.161 8.00662 27.9768 8.82242 27.9768 9.84216ZM33.2794 18.0001C33.2794 22.1471 33.2624 22.6739 33.1944 24.3055C33.1265 25.9371 32.8545 27.0419 32.4806 28.0106C32.0897 29.0134 31.5629 29.8631 30.7131 30.7129C29.8633 31.5627 29.0135 32.0896 28.0108 32.4805C27.042 32.8544 25.9203 33.1093 24.3057 33.1943C22.6741 33.2623 22.1473 33.2793 18.0003 33.2793C13.8534 33.2793 13.3265 33.2623 11.6949 33.1943C10.0633 33.1263 8.95861 32.8544 7.98985 32.4805C6.98711 32.0896 6.13732 31.5627 5.28754 30.7129C4.43776 29.8631 3.91089 29.0134 3.51999 28.0106C3.14608 27.0419 2.89115 25.9201 2.80617 24.3055C2.73819 22.6739 2.72119 22.1471 2.72119 18.0001C2.72119 13.8532 2.73819 13.3263 2.80617 11.6947C2.87415 10.0631 3.14608 8.95838 3.51999 7.98963C3.91089 6.98688 4.43776 6.13709 5.28754 5.2873C6.13732 4.43752 6.98711 3.91065 7.98985 3.51975C8.95861 3.14584 10.0803 2.8909 11.6949 2.80593C13.3265 2.73794 13.8534 2.72095 18.0003 2.72095C22.1473 2.72095 22.6741 2.73794 24.3057 2.80593C25.9373 2.87391 27.042 3.14584 28.0108 3.51975C29.0135 3.91065 29.8633 4.43752 30.7131 5.2873C31.5629 6.13709 32.0897 6.98688 32.4806 7.98963C32.8545 8.95838 33.1095 10.0801 33.1944 11.6947C33.2624 13.3263 33.2794 13.8532 33.2794 18.0001ZM30.5261 18.0001C30.5261 13.9211 30.5261 13.4283 30.4411 11.8137C30.3732 10.318 30.1182 9.51924 29.9143 8.97538C29.6423 8.26156 29.3024 7.75169 28.7756 7.22482C28.2487 6.69795 27.7388 6.35804 27.025 6.0861C26.4811 5.88215 25.6824 5.62722 24.1867 5.55924C22.5721 5.49125 22.0963 5.47426 18.0003 5.47426C13.9043 5.47426 13.4285 5.47426 11.8139 5.55924C10.3183 5.62722 9.51946 5.88215 8.9756 6.0861C8.26178 6.35804 7.75191 6.69795 7.22505 7.22482C6.69818 7.75169 6.35827 8.26156 6.08634 8.97538C5.88239 9.51924 5.62745 10.318 5.55947 11.8137C5.49149 13.4283 5.47449 13.9041 5.47449 18.0001C5.47449 22.0961 5.47449 22.572 5.55947 24.1866C5.62745 25.6822 5.88239 26.481 6.08634 27.0249C6.35827 27.7387 6.69818 28.2486 7.22505 28.7754C7.75191 29.3023 8.26178 29.6422 8.9756 29.9141C9.51946 30.1181 10.3183 30.373 11.8139 30.441C13.4285 30.509 13.9043 30.526 18.0003 30.526C22.0963 30.526 22.5721 30.526 24.1867 30.441C25.6824 30.373 26.4811 30.1181 27.025 29.9141C27.7388 29.6422 28.2487 29.3023 28.7756 28.7754C29.3024 28.2486 29.6423 27.7387 29.9143 27.0249C30.1182 26.481 30.3732 25.6822 30.4411 24.1866C30.5091 22.572 30.5261 22.0961 30.5261 18.0001ZM25.8353 18.0001C25.8353 22.334 22.3172 25.8522 17.9833 25.8522C13.6494 25.8522 10.1313 22.334 10.1313 18.0001C10.1313 13.6662 13.6494 10.1481 17.9833 10.1481C22.3172 10.1481 25.8353 13.6662 25.8353 18.0001ZM23.082 18.0001C23.082 15.1788 20.8046 12.9014 17.9833 12.9014C15.162 12.9014 12.8846 15.1788 12.8846 18.0001C12.8846 20.8214 15.162 23.0988 17.9833 23.0988C20.8046 23.0988 23.082 20.8214 23.082 18.0001Z" fill="#6D7A8A"/>
</svg>
