<svg width="15" height="18" viewBox="0 0 15 18" fill="none" xmlns="http://www.w3.org/2000/svg">
<path d="M9.89136 0.75V3.79701C9.89136 4.35795 10.3461 4.81269 10.907 4.81269H13.954M4.30517 4.81269H6.33651M4.30517 7.8597H10.3992M4.30517 10.9067H10.3992M12.4305 2.27351C11.9785 1.86905 11.5094 1.38935 11.2133 1.07779C11.0162 0.870471 10.744 0.75 10.458 0.75H2.78142C1.65955 0.75 0.750086 1.65946 0.750079 2.78133L0.75 14.9693C0.749993 16.0912 1.65945 17.0007 2.78133 17.0007L11.9224 17.0007C13.0443 17.0007 13.9537 16.0913 13.9538 14.9694L13.954 4.20145C13.954 3.94174 13.855 3.69209 13.6747 3.50512C13.3414 3.15938 12.7848 2.5905 12.4305 2.27351Z" stroke="#121212" stroke-width="1.5" stroke-linecap="round" stroke-linejoin="round"/>
</svg>
