<svg width="120" height="25" viewBox="0 0 120 25" fill="none" xmlns="http://www.w3.org/2000/svg">
<path d="M9.58547 17.1291C10.4458 15.9476 10.8665 14.2731 10.8878 12.5918H10.8929C10.8929 12.5619 10.8903 12.5312 10.8903 12.5013C10.8903 12.4714 10.8929 12.4406 10.8929 12.4107H10.8878C10.8665 10.7294 10.4449 9.05495 9.58547 7.87342C13.359 8.99856 16.5774 8.77388 18.8241 5.5753C19.7192 4.26648 20.8328 2.2238 22 0H12.2564C9.26074 0 6.31607 1.0175 4.08037 3.02088C2.65394 4.29894 1.6058 5.84014 0.904482 7.62311C0.307728 9.13953 0.0136012 10.7943 0.00255023 12.409H0C0 12.4389 0.00170015 12.4697 0.00170015 12.4996C0.00170015 12.5295 0 12.5602 0 12.5901H0.00255023C0.0136012 14.2057 0.307728 15.8596 0.903632 17.3769C1.60495 19.1599 2.65309 20.7011 4.07952 21.9791C6.31607 23.9825 9.25989 25 12.2556 25H21.9992C20.832 22.7762 19.7184 20.7335 18.8224 19.4264C16.5918 16.426 13.3505 16.3039 9.58377 17.1283L9.58547 17.1291Z" fill="url(#paint0_linear_1997_33146)"/>
<path d="M32 12.5C32 6.2091 36.8112 1.71851 43.2866 1.71851C46.8572 1.71851 49.8427 3.01309 51.7995 5.36964C51.8196 5.38987 51.8196 5.43032 51.7995 5.45055L48.7937 8.23189C48.7937 8.23189 48.7332 8.25211 48.713 8.23189C47.3211 6.65411 45.5863 5.83488 43.5287 5.83488C39.6353 5.83488 36.8818 8.57576 36.8818 12.5C36.8818 16.4242 39.6454 19.1651 43.5287 19.1651C45.5863 19.1651 47.3312 18.3458 48.713 16.7377C48.7332 16.7175 48.7736 16.7074 48.7937 16.7377L51.7995 19.519C51.7995 19.519 51.8297 19.5797 51.7995 19.6C49.8427 21.9869 46.8572 23.2814 43.2563 23.2814C36.8112 23.2713 32 18.7807 32 12.5Z" fill="black"/>
<path d="M52.543 12.5C52.543 6.31024 57.3837 1.71851 63.9801 1.71851C70.5764 1.71851 75.4172 6.26978 75.4172 12.5C75.4172 18.7302 70.546 23.2814 63.9801 23.2814C57.4141 23.2814 52.543 18.6998 52.543 12.5ZM70.5257 12.5C70.5257 8.5353 67.7146 5.83488 63.9801 5.83488C60.2455 5.83488 57.4344 8.54542 57.4344 12.5C57.4344 16.4545 60.2455 19.1651 63.9801 19.1651C67.7146 19.1651 70.5257 16.4545 70.5257 12.5Z" fill="black"/>
<path d="M96.9705 2.07084V22.9288C96.9705 22.9288 96.9403 22.9899 96.91 22.9899H93.0443C93.0443 22.9899 93.014 22.9899 93.0039 22.9696L82.7594 10.3774C82.7594 10.3774 82.6585 10.357 82.6585 10.4181V22.9288C82.6585 22.9288 82.6282 22.9899 82.5979 22.9899H77.9551C77.9551 22.9899 77.8945 22.9594 77.8945 22.9288V2.07084C77.8945 2.07084 77.9248 2.00977 77.9551 2.00977H81.851C81.851 2.00977 81.8813 2.00977 81.8914 2.03012L92.1158 14.6223C92.1158 14.6223 92.2167 14.6426 92.2167 14.5816V2.07084C92.2167 2.07084 92.247 2.00977 92.2772 2.00977H96.9201C96.9201 2.00977 96.9806 2.0403 96.9806 2.07084H96.9705Z" fill="black"/>
<path d="M114.455 22.9594L109.486 15.7726C109.486 15.7726 109.415 15.742 109.395 15.7726L104.518 22.9594C104.518 22.9594 104.487 22.9797 104.467 22.9797H99.0738C99.0738 22.9797 99.0029 22.9288 99.0232 22.8881L106.643 12.3421C106.643 12.3421 106.653 12.2912 106.643 12.2708L99.4077 2.10138C99.4077 2.10138 99.4077 2.00977 99.4583 2.00977H104.801C104.801 2.00977 104.842 2.00977 104.852 2.03012L109.587 8.73848C109.587 8.73848 109.658 8.76902 109.678 8.73848L114.323 2.03012C114.323 2.03012 114.353 2.00977 114.374 2.00977H119.443C119.443 2.00977 119.514 2.06066 119.494 2.10138L112.319 12.1079C112.319 12.1079 112.309 12.1588 112.319 12.1792L120 22.8983C120 22.8983 120 22.9899 119.949 22.9899H114.525C114.525 22.9899 114.485 22.9899 114.475 22.9696L114.455 22.9594Z" fill="black"/>
<defs>
<linearGradient id="paint0_linear_1997_33146" x1="22" y1="12.5" x2="0" y2="12.5" gradientUnits="userSpaceOnUse">
<stop stop-color="#05DBFD"/>
<stop offset="1" stop-color="#11F99C"/>
</linearGradient>
</defs>
</svg>
