<svg width="112" height="25" viewBox="0 0 112 25" fill="none" xmlns="http://www.w3.org/2000/svg">
<path d="M9.58547 17.1291C10.4458 15.9476 10.8665 14.2731 10.8878 12.5918H10.8929C10.8929 12.5619 10.8903 12.5312 10.8903 12.5013C10.8903 12.4714 10.8929 12.4406 10.8929 12.4107H10.8878C10.8665 10.7294 10.4449 9.05495 9.58547 7.87342C13.359 8.99856 16.5774 8.77388 18.8241 5.5753C19.7192 4.26648 20.8328 2.2238 22 0H12.2564C9.26074 0 6.31607 1.0175 4.08037 3.02088C2.65394 4.29894 1.6058 5.84014 0.904482 7.62311C0.307728 9.13953 0.0136012 10.7943 0.00255023 12.409H0C0 12.4389 0.00170015 12.4697 0.00170015 12.4996C0.00170015 12.5295 0 12.5602 0 12.5901H0.00255023C0.0136012 14.2057 0.307728 15.8596 0.903632 17.3769C1.60495 19.1599 2.65309 20.7011 4.07952 21.9791C6.31607 23.9825 9.25989 25 12.2556 25H21.9992C20.832 22.7762 19.7184 20.7335 18.8224 19.4264C16.5918 16.426 13.3505 16.3039 9.58377 17.1283L9.58547 17.1291Z" fill="url(#paint0_linear_2838_155831)"/>
<path d="M24 12.5002C24 6.20934 28.8112 1.71875 35.2866 1.71875C38.8572 1.71875 41.8427 3.01333 43.7995 5.36988C43.8196 5.39011 43.8196 5.43057 43.7995 5.4508L40.7937 8.23213C40.7937 8.23213 40.7332 8.25236 40.713 8.23213C39.3211 6.65436 37.5863 5.83513 35.5287 5.83513C31.6353 5.83513 28.8818 8.576 28.8818 12.5002C28.8818 16.4244 31.6454 19.1653 35.5287 19.1653C37.5863 19.1653 39.3312 18.3461 40.713 16.738C40.7332 16.7177 40.7736 16.7076 40.7937 16.738L43.7995 19.5193C43.7995 19.5193 43.8297 19.58 43.7995 19.6002C41.8427 21.9871 38.8572 23.2817 35.2563 23.2817C28.8112 23.2716 24 18.781 24 12.5002Z" fill="white"/>
<path d="M44.543 12.5002C44.543 6.31048 49.3837 1.71875 55.9801 1.71875C62.5764 1.71875 67.4172 6.27003 67.4172 12.5002C67.4172 18.7304 62.546 23.2817 55.9801 23.2817C49.4141 23.2817 44.543 18.7001 44.543 12.5002ZM62.5257 12.5002C62.5257 8.53555 59.7146 5.83513 55.9801 5.83513C52.2455 5.83513 49.4344 8.54566 49.4344 12.5002C49.4344 16.4548 52.2455 19.1653 55.9801 19.1653C59.7146 19.1653 62.5257 16.4548 62.5257 12.5002Z" fill="white"/>
<path d="M88.9705 2.0728V22.9308C88.9705 22.9308 88.9403 22.9919 88.91 22.9919H85.0443C85.0443 22.9919 85.014 22.9919 85.0039 22.9715L74.7594 10.3793C74.7594 10.3793 74.6585 10.359 74.6585 10.4201V22.9308C74.6585 22.9308 74.6282 22.9919 74.5979 22.9919H69.9551C69.9551 22.9919 69.8945 22.9613 69.8945 22.9308V2.0728C69.8945 2.0728 69.9248 2.01172 69.9551 2.01172H73.851C73.851 2.01172 73.8813 2.01172 73.8914 2.03208L84.1158 14.6242C84.1158 14.6242 84.2167 14.6446 84.2167 14.5835V2.0728C84.2167 2.0728 84.247 2.01172 84.2772 2.01172H88.9201C88.9201 2.01172 88.9806 2.04226 88.9806 2.0728H88.9705Z" fill="white"/>
<path d="M106.455 22.9613L101.486 15.7745C101.486 15.7745 101.415 15.744 101.395 15.7745L96.5177 22.9613C96.5177 22.9613 96.4874 22.9817 96.4671 22.9817H91.0738C91.0738 22.9817 91.0029 22.9308 91.0232 22.8901L98.6427 12.344C98.6427 12.344 98.6528 12.2931 98.6427 12.2728L91.4077 2.10334C91.4077 2.10334 91.4077 2.01172 91.4583 2.01172H96.8011C96.8011 2.01172 96.8415 2.01172 96.8517 2.03208L101.587 8.74043C101.587 8.74043 101.658 8.77097 101.678 8.74043L106.323 2.03208C106.323 2.03208 106.353 2.01172 106.374 2.01172H111.443C111.443 2.01172 111.514 2.06262 111.494 2.10334L104.319 12.1099C104.319 12.1099 104.309 12.1608 104.319 12.1811L112 22.9003C112 22.9003 112 22.9919 111.949 22.9919H106.525C106.525 22.9919 106.485 22.9919 106.475 22.9715L106.455 22.9613Z" fill="white"/>
<defs>
<linearGradient id="paint0_linear_2838_155831" x1="22" y1="12.5" x2="0" y2="12.5" gradientUnits="userSpaceOnUse">
<stop stop-color="#05DBFD"/>
<stop offset="1" stop-color="#11F99C"/>
</linearGradient>
</defs>
</svg>
