<svg width="112" height="25" viewBox="0 0 112 25" fill="none" xmlns="http://www.w3.org/2000/svg">
<path d="M9.58547 17.1291C10.4458 15.9476 10.8665 14.2731 10.8878 12.5918H10.8929C10.8929 12.5619 10.8903 12.5312 10.8903 12.5013C10.8903 12.4714 10.8929 12.4406 10.8929 12.4107H10.8878C10.8665 10.7294 10.4449 9.05495 9.58547 7.87342C13.359 8.99856 16.5774 8.77388 18.8241 5.5753C19.7192 4.26648 20.8328 2.2238 22 0H12.2564C9.26074 0 6.31607 1.0175 4.08037 3.02088C2.65394 4.29894 1.6058 5.84014 0.904482 7.62311C0.307728 9.13953 0.0136012 10.7943 0.00255023 12.409H0C0 12.4389 0.00170015 12.4697 0.00170015 12.4996C0.00170015 12.5295 0 12.5602 0 12.5901H0.00255023C0.0136012 14.2057 0.307728 15.8596 0.903632 17.3769C1.60495 19.1599 2.65309 20.7011 4.07952 21.9791C6.31607 23.9825 9.25989 25 12.2556 25H21.9992C20.832 22.7762 19.7184 20.7335 18.8224 19.4264C16.5918 16.426 13.3505 16.3039 9.58377 17.1283L9.58547 17.1291Z" fill="url(#paint0_linear_1997_34840)"/>
<path d="M24 12.5C24 6.2091 28.8112 1.71851 35.2866 1.71851C38.8572 1.71851 41.8427 3.01309 43.7995 5.36964C43.8196 5.38987 43.8196 5.43032 43.7995 5.45055L40.7937 8.23189C40.7937 8.23189 40.7332 8.25211 40.713 8.23189C39.3211 6.65411 37.5863 5.83488 35.5287 5.83488C31.6353 5.83488 28.8818 8.57576 28.8818 12.5C28.8818 16.4242 31.6454 19.1651 35.5287 19.1651C37.5863 19.1651 39.3312 18.3458 40.713 16.7377C40.7332 16.7175 40.7736 16.7074 40.7937 16.7377L43.7995 19.519C43.7995 19.519 43.8297 19.5797 43.7995 19.6C41.8427 21.9869 38.8572 23.2814 35.2563 23.2814C28.8112 23.2713 24 18.7807 24 12.5Z" fill="black"/>
<path d="M44.543 12.5C44.543 6.31024 49.3837 1.71851 55.9801 1.71851C62.5764 1.71851 67.4172 6.26978 67.4172 12.5C67.4172 18.7302 62.546 23.2814 55.9801 23.2814C49.4141 23.2814 44.543 18.6998 44.543 12.5ZM62.5257 12.5C62.5257 8.5353 59.7146 5.83488 55.9801 5.83488C52.2455 5.83488 49.4344 8.54542 49.4344 12.5C49.4344 16.4545 52.2455 19.1651 55.9801 19.1651C59.7146 19.1651 62.5257 16.4545 62.5257 12.5Z" fill="black"/>
<path d="M88.9705 2.07084V22.9288C88.9705 22.9288 88.9403 22.9899 88.91 22.9899H85.0443C85.0443 22.9899 85.014 22.9899 85.0039 22.9696L74.7594 10.3774C74.7594 10.3774 74.6585 10.357 74.6585 10.4181V22.9288C74.6585 22.9288 74.6282 22.9899 74.5979 22.9899H69.9551C69.9551 22.9899 69.8945 22.9594 69.8945 22.9288V2.07084C69.8945 2.07084 69.9248 2.00977 69.9551 2.00977H73.851C73.851 2.00977 73.8813 2.00977 73.8914 2.03012L84.1158 14.6223C84.1158 14.6223 84.2167 14.6426 84.2167 14.5816V2.07084C84.2167 2.07084 84.247 2.00977 84.2772 2.00977H88.9201C88.9201 2.00977 88.9806 2.0403 88.9806 2.07084H88.9705Z" fill="black"/>
<path d="M106.455 22.9594L101.486 15.7726C101.486 15.7726 101.415 15.742 101.395 15.7726L96.5177 22.9594C96.5177 22.9594 96.4874 22.9797 96.4671 22.9797H91.0738C91.0738 22.9797 91.0029 22.9288 91.0232 22.8881L98.6427 12.3421C98.6427 12.3421 98.6528 12.2912 98.6427 12.2708L91.4077 2.10138C91.4077 2.10138 91.4077 2.00977 91.4583 2.00977H96.8011C96.8011 2.00977 96.8415 2.00977 96.8517 2.03012L101.587 8.73848C101.587 8.73848 101.658 8.76902 101.678 8.73848L106.323 2.03012C106.323 2.03012 106.353 2.00977 106.374 2.00977H111.443C111.443 2.00977 111.514 2.06066 111.494 2.10138L104.319 12.1079C104.319 12.1079 104.309 12.1588 104.319 12.1792L112 22.8983C112 22.8983 112 22.9899 111.949 22.9899H106.525C106.525 22.9899 106.485 22.9899 106.475 22.9696L106.455 22.9594Z" fill="black"/>
<defs>
<linearGradient id="paint0_linear_1997_34840" x1="22" y1="12.5" x2="0" y2="12.5" gradientUnits="userSpaceOnUse">
<stop stop-color="#05DBFD"/>
<stop offset="1" stop-color="#11F99C"/>
</linearGradient>
</defs>
</svg>
