<svg width="52" height="58" viewBox="0 0 52 58" fill="none" xmlns="http://www.w3.org/2000/svg">
<path d="M22.6566 39.7396C24.69 36.9985 25.6845 33.1137 25.7348 29.2131H25.7468C25.7468 29.1437 25.7408 29.0723 25.7408 29.003C25.7408 28.9336 25.7468 28.8622 25.7468 28.7929H25.7348C25.6845 24.8923 24.6879 21.0075 22.6566 18.2663C31.5757 20.8767 39.1828 20.3554 44.4934 12.9347C46.6091 9.89823 49.2413 5.15921 52 0H28.9697C21.889 0 14.9289 2.36059 9.64451 7.00844C6.27295 9.97355 3.79552 13.5491 2.13787 17.6856C0.727357 21.2037 0.0321484 25.0429 0.00602782 28.7889H0C0 28.8583 0.00401855 28.9296 0.00401855 28.999C0.00401855 29.0684 0 29.1397 0 29.2091H0.00602782C0.0321484 32.9571 0.727357 36.7943 2.13586 40.3144C3.79351 44.4509 6.27094 48.0264 9.6425 50.9916C14.9289 55.6394 21.887 58 28.9677 58H51.998C49.2393 52.8408 46.6071 48.1018 44.4893 45.0693C39.217 38.1084 31.5556 37.825 22.6525 39.7376L22.6566 39.7396Z" fill="url(#paint0_linear_1992_26493)"/>
<defs>
<linearGradient id="paint0_linear_1992_26493" x1="52" y1="29" x2="0" y2="29" gradientUnits="userSpaceOnUse">
<stop stop-color="#05DBFD"/>
<stop offset="1" stop-color="#11F99C"/>
</linearGradient>
</defs>
</svg>
